<svg xmlns="http://www.w3.org/2000/svg" id="图层_1" data-name="图层 1" viewBox="0 0 500 500"><defs><style>.cls-1{fill:#262626}</style></defs><path d="m344.24 146 19 7.76a28 28 0 1 0-15.9 35.29l-18-8.81a18.67 18.67 0 0 1 14.9-34.24" class="cls-1"/><path d="M296.42 163.14a40.43 40.43 0 0 1 80.7-3.67l61.38 25.06C411.4 106.49 337.27 50.45 250 50.45 139.79 50.45 50.45 139.79 50.45 250c0 3.7.12 7.38.32 11l88.43 43.29c.83-.61 1.69-1.2 2.57-1.75a39.7 39.7 0 0 1 7.74-3.73c.31-.11.61-.24.92-.34.63-.21 1.26-.38 1.9-.56s1.15-.31 1.74-.44 1.09-.24 1.65-.35c.75-.14 1.51-.25 2.28-.34.44-.06.88-.13 1.33-.17 1.23-.11 2.49-.19 3.76-.19a39 39 0 0 1 4.75.31l32-39.15c-.18-1.15-.33-2.3-.42-3.48s-.21-2.68-.21-4v-.1a50.68 50.68 0 0 1 22.37-42.07q2-1.37 4.18-2.54a50.7 50.7 0 0 1 9.09-3.84q2.39-.74 4.87-1.25a50.6 50.6 0 0 1 10.22-1c1.36 0 2.69.08 4 .2 1.06.09 2.11.22 3.16.36l39.49-32.29M250 131.24a118.6 118.6 0 0 1 38.66 6.47 54.8 54.8 0 0 0-4.69 12.4A105.51 105.51 0 0 0 150.11 284a54.3 54.3 0 0 0-12.4 4.69A118.76 118.76 0 0 1 250 131.24M155.76 354l-18.86-7.71a27.89 27.89 0 0 0 24.2 18.51c.67.05 1.35.1 2 .1h.59a27.7 27.7 0 0 0 9.19-1.76l.21-.07a28.5 28.5 0 0 0 4-1.92l.14-.09a28 28 0 0 0 6.86-5.67l.12-.12a29 29 0 0 0 2.6-3.53l.14-.24a27.9 27.9 0 0 0 3.43-8.43 28 28 0 0 0-32.94-33.57 29 29 0 0 0-4.84 1.48l18 8.81A18.67 18.67 0 1 1 155.76 354" class="cls-1"/><path d="M360.8 195.68a40.2 40.2 0 0 1-23.94 7.9 39 39 0 0 1-4.75-.31l-32 39.15c.18 1.15.33 2.3.42 3.47a43 43 0 0 1 .21 4.11 50.6 50.6 0 0 1-1 10.22q-.51 2.49-1.25 4.87A50.79 50.79 0 0 1 250 300.73c-1.36 0-2.69-.08-4-.2-1.06-.09-2.11-.22-3.16-.36l-39.49 32.29a40 40 0 0 1 .25 4.4 40.45 40.45 0 0 1-40.44 40.45 38 38 0 0 1-4-.21c-.45 0-.88-.13-1.33-.19-.86-.11-1.73-.22-2.58-.39-.53-.11-1-.26-1.58-.38-.73-.18-1.47-.35-2.19-.57-.56-.17-1.1-.37-1.65-.57s-1.32-.45-2-.72-1.1-.49-1.66-.75-1.19-.55-1.78-.86-1.11-.62-1.66-.94-1.06-.62-1.58-1-1.1-.75-1.63-1.14-.95-.68-1.41-1.05-1.07-.87-1.58-1.33-.83-.73-1.23-1.11-1-1-1.52-1.53-.7-.76-1-1.15q-.75-.84-1.44-1.74c-.3-.38-.58-.76-.86-1.15-.46-.64-.91-1.28-1.34-1.95-.24-.37-.46-.75-.69-1.13-.42-.71-.83-1.43-1.21-2.17-.19-.36-.35-.72-.53-1.09-.37-.78-.73-1.57-1.06-2.39-.13-.33-.24-.67-.37-1-.32-.87-.63-1.74-.89-2.64-.08-.28-.14-.57-.22-.85-.25-1-.5-1.93-.69-2.92 0-.2 0-.4-.09-.6-.19-1.09-.35-2.18-.45-3.3L61.5 315.47c27.1 78 101.23 134.08 188.5 134.08 110.21 0 199.55-89.34 199.55-199.55 0-3.7-.12-7.38-.32-11ZM250 368.76a118.6 118.6 0 0 1-38.66-6.47 54.8 54.8 0 0 0 4.69-12.4A105.51 105.51 0 0 0 349.89 216a54.8 54.8 0 0 0 12.4-4.69A118.76 118.76 0 0 1 250 368.76" class="cls-1"/><path d="M263.32 218.47a34.19 34.19 0 1 0 18.21 18.21 34.1 34.1 0 0 0-18.21-18.21m-13.32 55A23.48 23.48 0 1 1 273.48 250 23.48 23.48 0 0 1 250 273.48Z" class="cls-1"/></svg>